<svg width="120" height="120" viewBox="0 0 120 120" fill="none" xmlns="http://www.w3.org/2000/svg">
<g clip-path="url(#clip0_70015_775)">
<path d="M52.5 18.75C52.5 23.7228 50.5246 28.4919 47.0083 32.0083C43.492 35.5246 38.7228 37.5 33.75 37.5C28.7772 37.5 24.0081 35.5246 20.4918 32.0083C16.9755 28.4919 15 23.7228 15 18.75C15 13.7772 16.9755 9.00805 20.4918 5.49175C24.0081 1.97544 28.7772 0 33.75 0C38.7228 0 43.492 1.97544 47.0083 5.49175C50.5246 9.00805 52.5 13.7772 52.5 18.75ZM84.1875 49.1475C83.4842 48.7952 82.6879 48.673 81.9113 48.7981C81.1346 48.9233 80.417 49.2895 79.86 49.845L52.035 85.17L32.085 64.38C31.3647 63.9004 30.5007 63.6848 29.6396 63.7695C28.7784 63.8543 27.973 64.2342 27.36 64.845L0.0150146 97.5V112.5C0.0150146 114.489 0.805191 116.397 2.21171 117.803C3.61824 119.21 5.52589 120 7.51502 120H112.515C113.5 120 114.475 119.806 115.385 119.429C116.295 119.052 117.122 118.5 117.818 117.803C118.515 117.107 119.067 116.28 119.444 115.37C119.821 114.46 120.015 113.485 120.015 112.5V78.75L84.1875 49.1475Z" fill="url(#paint0_linear_70015_775)"/>
</g>
<defs>
<linearGradient id="paint0_linear_70015_775" x1="60.015" y1="0" x2="60.015" y2="120" gradientUnits="userSpaceOnUse">
<stop stop-color="#873EFF"/>
<stop offset="1" stop-color="#873EFF" stop-opacity="0"/>
</linearGradient>
<clipPath id="clip0_70015_775">
<rect width="120" height="120" fill="white"/>
</clipPath>
</defs>
</svg>
